<svg xmlns="http://www.w3.org/2000/svg" viewBox="0 0 144.083 180">
  <path d="M77.586 101.107h-11.09c-1.657 0-3 1.343-3 3s1.343 3 3 3h2.545v8.721c0 1.657 1.343 3 3 3 1.656 0 3-1.343 3-3v-8.721h2.545c1.657 0 3-1.343 3-3s-1.342-3-3-3z"/>
  <circle cx="54.042" cy="79.162" r="5.375"/>
  <circle cx="90.042" cy="79.162" r="5.375"/>
  <path d="M111.961 9.745c-.938-1.223-2.648-1.537-3.958-.727-.478.295-10.565 6.646-14.332 16.985-.739-.111-1.492-.184-2.263-.184-3.592 0-6.983 1.24-9.684 3.48-2.701-2.24-6.092-3.48-9.684-3.48-3.592 0-6.983 1.24-9.684 3.48-2.701-2.24-6.091-3.48-9.684-3.48-.771 0-1.523.073-2.264.184-3.768-10.34-13.853-16.69-14.33-16.985-1.311-.81-3.021-.496-3.958.726-.381.497-9.31 12.319-7.004 24.887.842 4.584 2.3 8.699 4.158 12.063-.978 2.016-1.526 4.262-1.526 6.605 0 6.435 4.016 11.938 9.668 14.169v16.326c-5.343 4.344-8.49 10.887-8.49 17.802 0 12.652 10.293 22.945 22.945 22.945h3.281c2.966 6.594 9.499 10.887 16.886 10.887 7.388 0 13.92-4.292 16.885-10.887h3.281c12.652 0 22.945-10.293 22.945-22.945 0-6.915-3.146-13.458-8.49-17.802V67.47c5.652-2.23 9.668-7.734 9.668-14.169 0-2.343-.548-4.589-1.525-6.605 1.858-3.365 3.315-7.48 4.158-12.064 2.308-12.569-6.618-24.39-6.999-24.887zm-3.158 6.09c2.147 3.604 5.548 10.683 4.258 17.713-.543 2.955-1.388 5.627-2.391 7.926-1.236-1.006-2.631-1.831-4.154-2.414-.614-4.667-3.35-8.676-7.202-11.024 2.055-5.617 6.663-9.951 9.489-12.201zm-73.517.005c2.828 2.252 7.429 6.584 9.482 12.196-3.853 2.348-6.588 6.356-7.202 11.024-1.523.583-2.919 1.408-4.155 2.416-1.002-2.299-1.847-4.97-2.39-7.928-1.283-6.992 2.12-14.092 4.265-17.708zm73.867 85.758c0 9.344-7.602 16.945-16.945 16.945h-5.346c-1.312 0-2.472.853-2.863 2.104-1.643 5.253-6.448 8.782-11.957 8.782s-10.315-3.529-11.958-8.782c-.392-1.252-1.551-2.104-2.863-2.104h-5.346c-9.344 0-16.945-7.602-16.945-16.945 0-5.498 2.698-10.679 7.217-13.859.798-.562 1.273-1.477 1.273-2.453V68.521c3.433-.095 6.663-1.311 9.255-3.46 2.7 2.239 6.091 3.479 9.684 3.479 3.593 0 6.984-1.239 9.684-3.478 2.699 2.238 6.09 3.478 9.684 3.478 3.593 0 6.983-1.239 9.684-3.479 2.592 2.149 5.822 3.365 9.254 3.46v16.765c0 .977.475 1.892 1.273 2.453 4.517 3.18 7.215 8.361 7.215 13.859zm-8.061-39.059c-2.875 0-5.539-1.314-7.31-3.607-.567-.735-1.444-1.166-2.374-1.166s-1.807.431-2.374 1.166c-1.771 2.293-4.435 3.607-7.31 3.607-2.876 0-5.54-1.314-7.309-3.606-.568-.736-1.445-1.167-2.375-1.167s-1.807.431-2.375 1.167c-1.769 2.292-4.433 3.606-7.309 3.606-2.875 0-5.539-1.314-7.309-3.607-.568-.735-1.445-1.166-2.375-1.166s-1.806.431-2.375 1.166c-1.77 2.293-4.434 3.607-7.309 3.607-5.095 0-9.239-4.145-9.239-9.238 0-4.34 3.078-8.141 7.318-9.038 1.423-.301 2.425-1.579 2.377-3.033l-.012-.17c0-5.095 4.145-9.24 9.239-9.24 2.874 0 5.538 1.315 7.309 3.609.568.736 1.445 1.167 2.375 1.167s1.806-.431 2.375-1.167c1.771-2.293 4.435-3.609 7.309-3.609s5.538 1.315 7.31 3.609c.567.736 1.444 1.167 2.374 1.167s1.807-.431 2.374-1.167c1.771-2.293 4.436-3.609 7.31-3.609 5.094 0 9.238 4.145 9.237 9.202l-.01.176c-.063 1.465.941 2.762 2.376 3.065 4.24.897 7.318 4.698 7.318 9.038.003 5.094-4.142 9.238-9.236 9.238z"/>
</svg>
